<?xml version="1.0" encoding="UTF-8"?>
<svg id="Ebene_1" data-name="Ebene 1" xmlns="http://www.w3.org/2000/svg" viewBox="0 0 281.89 75.81">
  <defs>
    <style>
      .cls-1 {
        fill: #f8f2d8;
      }
    </style>
  </defs>
  <g id="Ebene_1-2" data-name="Ebene 1-2">
    <g>
      <path class="cls-1" d="M211.67,13.32c.05.04.41,1,.57,1.27.41.7.84,1.4,1.31,2.06.72,1.01,2.65,2.87,2.8,3.94.07.48-.11,1.5.08,1.82.31.52,1.6-.06,1.04,1.62-.11.34-.42.35-.52.55-.08.18-.35,3.11-.31,3.32.04.17.42-.02.46.16.04.21.02.92-.08,1.09l-10.08,5.01-.47.12c-3.57-1.57-7.02-3.46-10.56-5.13-.09-.58-.33-1.22.38-1.26-.12-.88,0-2.25-.15-3.07-.07-.36-.44-.34-.6-.72-.11-.26-.2-.91-.14-1.17.05-.18,3.09-1.14,3.52-1.27-.33,3.99,5.66,4.73,8.58,4.55,2.45-.16,7.05-1.3,6.52-4.55l.73.15c.09-2.18-3.25-3.72-4.98-4.62-.24-.13-1.28-.45-1.32-.51-.19-.27.76-.71.95-.88.68-.6,1.3-1.28,1.75-2.07.08-.14.13-.73.52-.42h0Z"/>
      <path class="cls-1" d="M212.95,23.38c-2.04,2.44-11.32,2.55-13.06-.25-1.19-1.92,1.84-3.12,3.26-3.47,2.57-.62,7.15-.53,9.33,1.13.82.63,1.18,1.74.47,2.59ZM208.02,21.67c-.2-.24-2.97-.52-3.08.36.35.7,3.74.44,3.08-.36Z"/>
      <path class="cls-1" d="M196.44,16.11s-.53-.18-.81-.44c-1.14-1.08-.78-3.14.24-4.17.17-.17.65-.35.69-.41.11-.19-.01-.74.05-1.06.24-1.32,1.04-2.9,2.11-3.75.34-.27,1.21-.62,1.31-.74.16-.18.4-.97.69-1.36.82-1.14,2.34-2.05,3.73-2.28.24-.04.84.04.92-.03.03-.03.06-.44.18-.62.87-1.36,3.15-1.68,4.39-.61.19.16.34.6.52.64.41.1,1.31-.5,1.9.16.86.95.34,2.44.34,3.45,0,1.41.57,1.74,0,3.51-.48,1.5-1.37,2-2.02,3.11-.59,1.02-.64,1.91-1.65,2.89-.81.79-1.63.88-2.4,1.41s-1.22,1.32-2.23,1.88c-1.89,1.04-2.33.61-4.22.6-1.19,0-1.82.64-3.23.02-1.24-.55-.4-2.06-.51-2.2h0ZM207.56,3.22c-.1-.08-.54.01-.72-.02-.38.37,1.36,5.26,1.69,6.01.08.18.35.98.58.88.25-.12.24-.39.2-.62-.16-.96-.96-2.62-1.25-3.74-.1-.39-.4-2.43-.5-2.51h0ZM210.21,8.34c.46-1.24,1.03-3.06.24-4.27-.13-.21-.22-.48-.53-.42-.37.28-.15,3.74.01,4.31.05.17.05.35.28.38h0ZM203.89,4.84c-.58-.01-1.01.18-.74.82.36.86,3.46,5.12,4.16,5.81.39.38.79.29.65-.21l-4.07-6.42h0ZM206.24,12.9c-.83-.45-6.17-4.82-6.56-4.55-.03.02-.44.62-.45.66-.1.38,5.9,3.63,6.44,4.38.37.22.68-.06.56-.49ZM204.5,14.64c.18-.23-.23-.37-.36-.44-1.12-.64-5.13-2.06-6.31-1.91-.37.05-.55.55.01.74.59.19,1.45.21,2.12.37,1.19.3,2.95,1.17,3.95,1.33.13.02.56-.04.59-.09h0ZM202.45,15.37c-.34-.34-3.51-.24-4.15-.15s.55.78.89.84c.8.15,2.36.02,3.08-.37.13-.07.4-.12.19-.33h0Z"/>
    </g>
  </g>
  <g>
    <path class="cls-1" d="M26.36,64.2l17.14-26.54h-8.85c-5.53,0-5.53.11-7.3,8.79l-.94,4.87-.55-.11,1-4.87,1.71-8.74.11-.5h19.8v.55l-17.14,26.54h10.78c5.53,0,5.53-.11,7.3-8.79l.94-4.87.55.11-1,4.87-1.71,8.74-.11.5h-21.73v-.55Z"/>
    <path class="cls-1" d="M70.54,36.28c6.08,0,9.23,3.15,12.28,8.24l-18.3,14.82c1.66,3.26,4.37,5.7,7.96,5.7,3.82,0,8.35-3.7,10.06-7.35h.55c-2.05,4.64-6.8,7.91-11.17,7.91-7.8,0-14.65-6.08-14.65-14.65s5.47-14.65,13.27-14.65ZM62.52,50.93c0,2.6.61,5.42,1.71,7.8l13.27-10.56c1.05-.88,1.99-1.71,2.21-2.54,1.82-6.19-5.36-8.9-8.9-8.79-4.87.11-8.29,6.58-8.29,14.1Z"/>
    <path class="cls-1" d="M84.75,64.2h.55q6.03,0,6.03-6.08v-14.49c0-6.08.11-6.08-5.86-5.09l-.55.06-.06-.55.5-.06,10.34-1.71h.61v21.84q0,6.08,6.03,6.08h.55v.55h-18.14v-.55ZM90.33,29.81c0-1.66,1.38-3.04,3.04-3.04s3.04,1.38,3.04,3.04-1.38,3.04-3.04,3.04-3.04-1.38-3.04-3.04Z"/>
    <path class="cls-1" d="M112.01,28.31v3.54c0,3.76-1.27,5.25-4.42,5.25h13.55v.55h-9.12v12.05l9.4,7.58c0,1.05.17,8.29-5.92,8.29s-8.18-6.47-8.18-15.7v-12.22h-4.42v-.55h4.42v-8.79h4.7ZM115.49,65.03c2.82,0,4.48-1.16,4.48-6.75,0-1.55-1.05-2.27-3.87-4.59l-4.09-3.21c-.06,7.96-1.27,14.54,3.48,14.54Z"/>
    <path class="cls-1" d="M130.81,43.08c0,7.35,17.31,4.31,17.31,14.82,0,4.81-4.87,7.69-11.89,7.69-4.37,0-7.08-1.99-9.07-5.31-.22-.39-.61-.28-.61,1.16h-.55v-7.46h.61c0,2.76,1.55,11.06,9.62,11.06,5.2,0,6.91-2.71,6.91-6.58,0-6.8-17.31-2.93-17.31-14.82,0-4.31,4.42-7.35,10.95-7.35,3.48,0,6.41,1.77,7.74,3.87.22.39.55-.55.55-1.82h.55v8.02h-.55c0-3.98-1.33-9.51-8.29-9.51-4.59,0-5.97,2.93-5.97,6.25Z"/>
    <path class="cls-1" d="M162.43,57.01v12.16q0,6.08,6.03,6.08h.55v.55h-18.14v-.55h.55q6.03,0,6.03-6.08v-25.55c0-6.08.11-6.08-5.86-5.09l-.55.06-.06-.55.5-.06,10.34-1.71h.61v8.57c1.38-5.25,4.59-8.57,9.4-8.57,7.13,0,11.61,6.08,11.61,14.65s-4.48,14.65-11.61,14.65c-4.81,0-8.02-3.32-9.4-8.57ZM170.73,65.03c4.7,0,7.46-6.47,7.46-14.1s-2.76-14.1-7.46-14.1c-3.98,0-7.35,4.59-8.29,10.62v6.97c.94,6.03,4.31,10.62,8.29,10.62Z"/>
    <path class="cls-1" d="M202.8,65.58c-6.14,0-10.51-4.87-10.51-11.89v-10.23c0-6.08.06-6.08-5.92-5.31l-.55.11-.06-.55.55-.11,10.12-1.33h.55v17.42c0,5.97,2.49,11.34,6.36,11.34,4.42,0,8.29-6.25,8.29-16.75v-4.76c0-6.08.06-6.08-5.86-5.2l-.55.06-.11-.55.55-.06,10.12-1.49h.55v22.12c0,6.08-.05,6.08,5.92,5.31l.55-.11.06.55-.55.11-10.12,1.33h-.55v-10.62c-1.22,6.58-4.31,10.62-8.85,10.62Z"/>
    <path class="cls-1" d="M222.87,64.2h.55q6.03,0,6.03-6.08v-14.49c0-6.08.11-6.08-5.86-5.09l-.55.06-.06-.55.5-.06,10.34-1.71h.61v15.37c1.44-7.41,5.31-15.37,9.84-15.37,6.08,0,7.24,7.24,7.24,8.29l-17.09,13.71c0,5.92.06,5.92,6.03,5.92h.55v.55h-18.14v-.55ZM234.43,57.45l11.78-9.29c1.71-1.33,3.1-2.65,3.21-3.93.44-5.92-3.04-7.41-4.92-7.41-5.7,0-10.06,13.44-10.06,20.62Z"/>
  </g>
  <g>
    <path class="cls-1" d="M129.25,31.29h-1.32l-1.08-2.86h-4.32l-1.02,2.86h-1.33l3.91-10.19h1.24l3.92,10.19ZM126.46,27.36l-1.6-4.34c-.05-.14-.1-.37-.16-.68h-.03c-.05.29-.1.52-.16.68l-1.58,4.34h3.53Z"/>
    <path class="cls-1" d="M136.63,31.29h-1.17v-4.15c0-1.54-.56-2.32-1.69-2.32-.58,0-1.06.22-1.45.66s-.57.99-.57,1.66v4.15h-1.17v-7.28h1.17v1.21h.03c.55-.92,1.35-1.38,2.39-1.38.8,0,1.4.26,1.83.77s.63,1.26.63,2.23v4.45Z"/>
    <path class="cls-1" d="M142.2,31.22c-.27.15-.64.23-1.09.23-1.27,0-1.91-.71-1.91-2.13v-4.31h-1.25v-.99h1.25v-1.78l1.17-.38v2.15h1.83v.99h-1.83v4.1c0,.49.08.84.25,1.04s.44.31.82.31c.29,0,.55-.08.76-.24v.99Z"/>
    <path class="cls-1" d="M144.36,22.17c-.21,0-.39-.07-.53-.21s-.22-.32-.22-.54.07-.4.22-.54.32-.22.53-.22.39.07.54.22.22.33.22.54-.07.39-.22.53-.33.22-.54.22ZM144.92,31.29h-1.17v-7.28h1.17v7.28Z"/>
    <path class="cls-1" d="M153.49,34.64h-1.17v-4.6h-.03c-.51.95-1.34,1.42-2.49,1.42-.91,0-1.65-.33-2.2-.98s-.83-1.54-.83-2.66c0-1.21.3-2.17.91-2.9s1.42-1.08,2.44-1.08,1.71.39,2.16,1.18h.03v-1.01h1.17v10.62ZM152.33,28.01v-1.06c0-.6-.2-1.1-.59-1.51s-.89-.62-1.49-.62c-.7,0-1.26.26-1.66.78s-.61,1.25-.61,2.19c0,.84.2,1.5.59,1.97s.9.71,1.52.71c.68,0,1.23-.23,1.63-.7s.61-1.06.61-1.77Z"/>
    <path class="cls-1" d="M161.73,31.29h-1.17v-1.15h-.03c-.48.88-1.23,1.32-2.25,1.32-1.73,0-2.6-1.03-2.6-3.1v-4.35h1.16v4.16c0,1.53.59,2.3,1.76,2.3.57,0,1.04-.21,1.4-.63s.55-.97.55-1.64v-4.19h1.17v7.28Z"/>
    <path class="cls-1" d="M169.29,31.29h-1.17v-1.14h-.03c-.51.87-1.25,1.31-2.24,1.31-.72,0-1.29-.19-1.7-.58-.41-.38-.61-.89-.61-1.53,0-1.36.8-2.15,2.4-2.37l2.18-.31c0-1.24-.5-1.85-1.5-1.85-.88,0-1.67.3-2.37.9v-1.19c.72-.45,1.54-.68,2.47-.68,1.71,0,2.56.9,2.56,2.71v4.73ZM168.13,27.61l-1.75.24c-.54.08-.95.21-1.22.4s-.41.53-.41,1.02c0,.36.13.65.38.87s.59.34,1.01.34c.58,0,1.06-.2,1.43-.61s.56-.92.56-1.54v-.72Z"/>
    <path class="cls-1" d="M175.28,25.19c-.2-.16-.5-.23-.88-.23-.5,0-.91.23-1.25.7s-.5,1.11-.5,1.92v3.71h-1.17v-7.28h1.17v1.5h.03c.17-.51.42-.91.76-1.2s.72-.43,1.14-.43c.3,0,.54.03.7.1v1.21Z"/>
    <path class="cls-1" d="M177.14,22.17c-.21,0-.39-.07-.53-.21s-.22-.32-.22-.54.07-.4.22-.54.32-.22.53-.22.39.07.54.22.22.33.22.54-.07.39-.22.53-.33.22-.54.22ZM177.71,31.29h-1.17v-7.28h1.17v7.28Z"/>
    <path class="cls-1" d="M185.28,31.29h-1.17v-1.14h-.03c-.51.87-1.25,1.31-2.24,1.31-.72,0-1.29-.19-1.7-.58s-.61-.89-.61-1.53c0-1.36.8-2.15,2.4-2.37l2.18-.31c0-1.24-.5-1.85-1.5-1.85-.88,0-1.67.3-2.37.9v-1.19c.72-.45,1.54-.68,2.47-.68,1.71,0,2.56.9,2.56,2.71v4.73ZM184.12,27.61l-1.75.24c-.54.08-.95.21-1.22.4s-.41.53-.41,1.02c0,.36.13.65.38.87s.59.34,1.01.34c.58,0,1.06-.2,1.43-.61s.56-.92.56-1.54v-.72Z"/>
    <path class="cls-1" d="M190.85,31.22c-.27.15-.64.23-1.09.23-1.27,0-1.91-.71-1.91-2.13v-4.31h-1.25v-.99h1.25v-1.78l1.17-.38v2.15h1.83v.99h-1.83v4.1c0,.49.08.84.25,1.04s.44.31.82.31c.29,0,.55-.08.76-.24v.99Z"/>
  </g>
  <g>
    <path class="cls-1" d="M.98,51.44c.02,1.39.91,1.96,1.93,1.96.73,0,1.18-.13,1.56-.29l.17.73c-.36.16-.98.35-1.87.35-1.73,0-2.77-1.14-2.77-2.84s1-3.04,2.64-3.04c1.84,0,2.33,1.62,2.33,2.65,0,.21-.02.37-.03.48H.98ZM3.98,50.71c.01-.65-.27-1.66-1.42-1.66-1.04,0-1.49.95-1.57,1.66h2.99Z"/>
    <path class="cls-1" d="M6.1,53.03c.3.2.84.41,1.35.41.75,0,1.09-.37,1.09-.84,0-.49-.29-.76-1.05-1.04-1.01-.36-1.49-.92-1.49-1.59,0-.91.73-1.65,1.94-1.65.57,0,1.07.16,1.39.35l-.26.75c-.22-.14-.63-.33-1.15-.33-.61,0-.94.35-.94.77,0,.47.34.68,1.07.95.98.37,1.48.86,1.48,1.7,0,.99-.77,1.69-2.11,1.69-.62,0-1.19-.15-1.58-.38l.26-.78Z"/>
    <path class="cls-1" d="M12.08,46.82v1.62h1.47v.78h-1.47v3.04c0,.7.2,1.09.77,1.09.27,0,.47-.04.59-.07l.05.77c-.2.08-.51.14-.91.14-.48,0-.86-.15-1.11-.43-.29-.3-.4-.8-.4-1.47v-3.07h-.87v-.78h.87v-1.35l1-.27Z"/>
    <path class="cls-1" d="M14.42,53.47c0-.43.29-.73.7-.73s.69.3.69.73-.27.73-.7.73c-.41,0-.69-.31-.69-.73Z"/>
  </g>
  <g>
    <path class="cls-1" d="M261.53,48.05h-.02l-1.32.71-.2-.78,1.65-.88h.87v7.57h-.99v-6.61Z"/>
    <path class="cls-1" d="M265.87,53.94c.22.02.48,0,.83-.04.59-.08,1.15-.33,1.58-.73.5-.45.86-1.12,1-2.01h-.03c-.42.51-1.02.81-1.78.81-1.36,0-2.24-1.02-2.24-2.32,0-1.43,1.04-2.69,2.58-2.69s2.5,1.26,2.5,3.19c0,1.66-.56,2.83-1.3,3.55-.58.57-1.39.92-2.2,1.01-.37.06-.7.07-.94.06v-.84ZM266.24,49.59c0,.94.57,1.61,1.46,1.61.69,0,1.22-.34,1.49-.79.06-.09.09-.21.09-.37,0-1.29-.48-2.28-1.55-2.28-.87,0-1.49.77-1.49,1.84Z"/>
    <path class="cls-1" d="M271.84,53.94c.22.02.48,0,.83-.04.59-.08,1.15-.33,1.58-.73.5-.45.86-1.12,1-2.01h-.03c-.42.51-1.02.81-1.78.81-1.36,0-2.24-1.02-2.24-2.32,0-1.43,1.04-2.69,2.58-2.69s2.5,1.26,2.5,3.19c0,1.66-.56,2.83-1.3,3.55-.58.57-1.39.92-2.2,1.01-.37.06-.7.07-.94.06v-.84ZM272.21,49.59c0,.94.57,1.61,1.46,1.61.69,0,1.22-.34,1.49-.79.06-.09.09-.21.09-.37,0-1.29-.48-2.28-1.55-2.28-.87,0-1.49.77-1.49,1.84Z"/>
    <path class="cls-1" d="M281.74,47.96h-2.89l-.29,1.94c.17-.02.34-.05.62-.05.58,0,1.16.13,1.63.41.59.34,1.08.99,1.08,1.94,0,1.48-1.18,2.58-2.82,2.58-.83,0-1.52-.23-1.89-.47l.26-.78c.31.19.93.42,1.62.42.97,0,1.79-.63,1.79-1.64-.01-.98-.66-1.68-2.18-1.68-.43,0-.77.05-1.05.08l.49-3.63h3.62v.86Z"/>
  </g>
</svg>